<svg width="1366" height="1819" viewBox="0 0 1366 1819" fill="none" xmlns="http://www.w3.org/2000/svg">
<g clip-path="url(#clip0_98_2)">
<rect width="1366" height="1819" fill="white"/>
<g clip-path="url(#clip1_98_2)">
<rect width="1366" height="1512" transform="translate(0 4)" fill="#A2B945"/>
<path d="M700.875 187.682C319.982 96.4173 43.1883 289.247 -48.4696 399.373L-74.5 33.5L1380 76.5L1471.92 140.035C1356.76 215.085 1039.94 333.368 700.875 187.682Z" fill="#D2EC67"/>
</g>
<path d="M617.058 131.104C250.558 -7.0495 -50.4728 154.026 -155.175 251.833C-155.175 251.833 -93.5001 186.547 -87.5001 64C-81.5001 -58.5465 644 33.4991 644 33.4991L1350.5 79.4987L1385.7 184.545C1262.07 244.615 935.26 318.024 617.058 131.104Z" fill="#76882D"/>
<path d="M664.334 115.416C425.942 -28.269 88.0584 -6.99633 -51.0844 21.6006L-54 -3.73218L1497.5 -3.73218L1597.69 -127.395L1784.71 41.3277L1647.54 305.745C1659.04 237.987 1634.03 116.65 1442.06 173.372C1202.09 244.274 962.324 295.022 664.334 115.416Z" fill="white"/>
<path d="M282 1819C94 1819 7.33333 1644 -12.5 1556.5H4.5L31.5 1583.5H1454C1341 1583.5 1397 1819 1124 1819C851 1819 918 1718 687 1665.5C456 1613 517 1819 282 1819Z" fill="#677725"/>
<path d="M282 1754.5C94 1754.5 -155.5 1372.5 -59.9998 1386C35.5002 1399.5 4.50001 1492 4.50001 1492L31.5 1519C543.333 1519 1553 1489.5 1445.5 1563.5C1338 1637.5 1397 1754.5 1124 1754.5C851 1754.5 911 1648 680 1595.5C449 1543 517 1754.5 282 1754.5Z" fill="#C8E261"/>
<path d="M282 1691.39C93.9997 1691.39 -125.5 1464.5 -30 1478C65.5 1491.5 -114.5 1428.89 -114.5 1428.89H40C551.833 1428.89 1559 1433.78 1454 1455.89C1349 1478 1355 1726.5 1082 1726.5C809 1726.5 902 1597 671 1544.5C440 1492 517 1691.39 282 1691.39Z" fill="#A2B945"/>
</g>
<defs>
<clipPath id="clip0_98_2">
<rect width="1366" height="1819" fill="white"/>
</clipPath>
<clipPath id="clip1_98_2">
<rect width="1366" height="1512" fill="white" transform="translate(0 4)"/>
</clipPath>
</defs>
</svg>
