<svg width="1365" height="1305" viewBox="0 0 1365 1305" fill="none" xmlns="http://www.w3.org/2000/svg">
<g clip-path="url(#clip0_112_14)">
<rect width="1365" height="1305" fill="white"/>
<g clip-path="url(#clip1_112_14)">
<rect width="1366" height="1261" transform="translate(0 0.214844)" fill="#EC4096"/>
<path d="M1512.5 1338.85C1493.05 1227.7 1748.5 601.215 1446 306.715C1327.24 191.093 1192.5 320.215 873.5 132.215C554.5 -55.7849 -176.5 66.7148 -229 83.3498C-281.499 99.9847 -10.5 1338.85 -10.5 1338.85L1512.5 1338.85Z" fill="#FBA0CD"/>
</g>
<path d="M-1.5 0.212529C95.5332 -1.75436 278.483 -8.19382 487.248 0.21388L609 0.214216L1539.5 0.214009L1522.5 497.214C1365.83 507.214 1553.5 216.715 1151 95.2148C946.418 33.4591 703.042 8.90465 487.248 0.21388L-1.5 0.212529Z" fill="white"/>
<path d="M722 1160.65C484.4 1075.85 97.8333 1093.88 -56 1100.71L-36.5 1263.15L1448 1279.65L1426 1160.65C1283 1176.15 959.6 1245.45 722 1160.65Z" fill="#B23EDB"/>
<path d="M722 1204.65C484.4 1119.85 117.333 1112.31 -36.5 1119.15V1307.15L1448 1323.65V1264.15C1305 1279.65 959.6 1289.45 722 1204.65Z" fill="white"/>
</g>
<defs>
<clipPath id="clip0_112_14">
<rect width="1365" height="1305" fill="white"/>
</clipPath>
<clipPath id="clip1_112_14">
<rect width="1366" height="1261" fill="white" transform="translate(0 0.214844)"/>
</clipPath>
</defs>
</svg>
