<svg width="58" height="53" viewBox="0 0 58 53" fill="none" xmlns="http://www.w3.org/2000/svg">
<path d="M27.4956 30.3539C28.1081 29.7935 29.163 29.7935 29.7756 30.3539L38.5097 38.3445C40.1205 39.8181 42.2643 40.6275 44.5329 40.6275H46.2457L35.2316 50.704C31.7946 53.7653 26.2138 53.7653 22.7769 50.704L11.7174 40.5964H12.7723C15.0409 40.5964 17.1847 39.787 18.7954 38.3134L27.4956 30.3539ZM29.7756 22.7161C29.0496 23.2869 28.1195 23.2972 27.4956 22.7161L18.7954 14.7566C17.1847 13.1896 15.0409 12.4736 12.7723 12.4736H11.7174L22.7655 2.36185C26.2138 -0.787282 31.7946 -0.787282 35.2316 2.36185L46.2571 12.4425H44.5329C42.2643 12.4425 40.1205 13.2519 38.5097 14.7255L29.7756 22.7161ZM12.7723 14.8085C14.3376 14.8085 15.7782 15.3897 16.9805 16.4066L25.6807 24.3661C26.4974 25.0199 27.5637 25.4869 28.6412 25.4869C29.7075 25.4869 30.7737 25.0199 31.5904 24.3661L40.3246 16.3755C41.4363 15.3689 42.9676 14.7878 44.5329 14.7878H48.8093L55.4223 20.8378C58.8592 23.9822 58.8592 29.0878 55.4223 32.2322L48.8093 38.2822H44.5329C42.9676 38.2822 41.4363 37.7011 40.3246 36.6841L31.5904 28.6935C30.0138 27.251 27.2574 27.251 25.6807 28.7039L16.9805 36.653C15.7782 37.67 14.3376 38.2511 12.7723 38.2511H9.16289L2.58163 32.2322C-0.860543 29.0878 -0.860543 23.9822 2.58163 20.8378L9.16289 14.8085H12.7723Z" fill="white"/>
</svg>
